<?xml version="1.0" encoding="UTF-8" standalone="no"?>
<!DOCTYPE svg PUBLIC "-//W3C//DTD SVG 1.1//EN"
 "http://www.w3.org/Graphics/SVG/1.1/DTD/svg11.dtd">
<!-- Generated by graphviz version 2.40.1 (20161225.0304)
 -->
<!-- Pages: 1 -->
<svg width="558pt" height="941pt"
 viewBox="0.00 0.00 558.00 941.10" xmlns="http://www.w3.org/2000/svg" xmlns:xlink="http://www.w3.org/1999/xlink">
<g id="graph0" class="graph" transform="scale(1 1) rotate(0) translate(4 937.0955)">
<polygon fill="#ffffff" stroke="transparent" points="-4,4 -4,-937.0955 554,-937.0955 554,4 -4,4"/>
<g id="cluster_xyz_top" class="cluster">
<title>cluster_xyz</title>
<polygon fill="none" stroke="#000000" stroke-width=".5" points="94,-319.7685 94,-606.932 381,-606.932 381,-319.7685 94,-319.7685"/>
<text text-anchor="start" x="106.5" y="-348.1685" font-family="Times,serif" font-size="12.00" fill="#000000">xyz</text>
<text text-anchor="start" x="106.5" y="-330.7685" font-family="Times,serif" font-size="10.00" fill="#000000">(2025&#45;12&#45;31 11:25:03 UTC)</text>
</g>
<g id="cluster_dautor.xyz_top" class="cluster">
<title>cluster_dautor.xyz</title>
<polygon fill="none" stroke="#000000" stroke-width=".5" points="8,-8 8,-296.7685 253,-296.7685 253,-8 8,-8"/>
<text text-anchor="start" x="20.5" y="-37.4" font-family="Times,serif" font-size="12.00" fill="#000000">dautor.xyz</text>
<image xlink:href="/static/images/dnssec_legend/error.png" width="18px" height="15.84px" preserveAspectRatio="xMinYMin meet" x="121.5" y="-48.42"/>
<text text-anchor="start" x="20.5" y="-18.5" font-family="Times,serif" font-size="10.00" fill="#000000">(2025&#45;12&#45;31 11:36:14 UTC)</text>
</g>
<g id="cluster_._top" class="cluster">
<title>cluster_.</title>
<polygon fill="none" stroke="#000000" stroke-width=".5" points="124,-629.932 124,-925.0955 542,-925.0955 542,-629.932 124,-629.932"/>
<text text-anchor="start" x="136.5" y="-658.332" font-family="Times,serif" font-size="12.00" fill="#000000">.</text>
<text text-anchor="start" x="136.5" y="-640.932" font-family="Times,serif" font-size="10.00" fill="#000000">(2025&#45;12&#45;31 08:38:10 UTC)</text>
</g>
<!-- cluster_xyz_top -->
<!-- cluster_._bottom -->
<!-- cluster_xyz_top&#45;&gt;cluster_._bottom -->
<g id="del&#45;xyz|." class="edge">
<title>cluster_xyz_top&#45;&gt;cluster_._bottom</title>
<path fill="none" stroke="#0a879a" stroke-width="5" d="M156.1621,-607.3293C152.2846,-613.5928 147.6848,-621.926 145,-629.932"/>
<polygon fill="#0a879a" stroke="#0a879a" stroke-width="5" points="150.6683,-615.9683 156.7919,-606.932 145.9994,-608.5675 150.6683,-615.9683"/>
</g>
<!-- cluster_xyz_bottom -->
<!-- DNSKEY&#45;1|xyz|8|65206 -->
<g id="DNSKEY&#45;1|xyz|8|65206" class="node">
<title>DNSKEY&#45;1|xyz|8|65206</title>
<ellipse fill="#ffffff" stroke="#0a879a" stroke-width="1.5" cx="167" cy="-466.4792" rx="60.623" ry="28.0702"/>
<text text-anchor="start" x="141" y="-473.8792" font-family="Helvetica,sans-Serif" font-size="12.00" fill="#000000">DNSKEY</text>
<text text-anchor="start" x="132" y="-463.4792" font-family="Times,serif" font-size="10.00" fill="#000000">alg=8, id=65206</text>
<text text-anchor="start" x="147.5" y="-453.4792" font-family="Times,serif" font-size="10.00" fill="#000000">1024 bits</text>
</g>
<!-- DNSKEY&#45;2|xyz|8|18130 -->
<g id="DNSKEY&#45;2|xyz|8|18130" class="node">
<title>DNSKEY&#45;2|xyz|8|18130</title>
<ellipse fill="#d3d3d3" stroke="#0a879a" stroke-width="1.5" cx="163" cy="-545.0478" rx="60.623" ry="28.0702"/>
<text text-anchor="start" x="137" y="-552.4478" font-family="Helvetica,sans-Serif" font-size="12.00" fill="#000000">DNSKEY</text>
<text text-anchor="start" x="128" y="-542.0478" font-family="Times,serif" font-size="10.00" fill="#000000">alg=8, id=18130</text>
<text text-anchor="start" x="143.5" y="-532.0478" font-family="Times,serif" font-size="10.00" fill="#000000">2048 bits</text>
</g>
<!-- DNSKEY&#45;1|xyz|8|65206&#45;&gt;DNSKEY&#45;2|xyz|8|18130 -->
<g id="RRSIG&#45;DNSKEY&#45;1|xyz|8|65206|DNSKEY&#45;2|xyz|8|18130|0a879a|solid" class="edge">
<title>DNSKEY&#45;1|xyz|8|65206&#45;&gt;DNSKEY&#45;2|xyz|8|18130</title>
<path fill="none" stroke="#0a879a" stroke-width="1.5" d="M165.0341,-505.0932C164.8345,-509.0134 164.6345,-512.9425 164.442,-516.7244"/>
<polygon fill="#0a879a" stroke="#0a879a" stroke-width="1.5" points="168.5428,-505.0093 165.5559,-494.8443 161.5519,-504.6533 168.5428,-505.0093"/>
</g>
<!-- DNSKEY&#45;2|xyz|8|18130&#45;&gt;cluster_xyz_top -->
<!-- DNSKEY&#45;2|xyz|8|18130&#45;&gt;DNSKEY&#45;2|xyz|8|18130 -->
<g id="RRSIG&#45;DNSKEY&#45;2|xyz|8|18130|DNSKEY&#45;2|xyz|8|18130|0a879a|solid" class="edge">
<title>DNSKEY&#45;2|xyz|8|18130&#45;&gt;DNSKEY&#45;2|xyz|8|18130</title>
<path fill="none" stroke="#0a879a" stroke-width="1.5" d="M230.3958,-536.9991C237.3578,-538.5801 241.8112,-541.263 241.8112,-545.0478 241.8112,-550.4306 232.8032,-553.5846 220.382,-554.5097"/>
<polygon fill="#0a879a" stroke="#0a879a" stroke-width="1.5" points="230.773,-533.5177 220.382,-535.5858 229.7947,-540.449 230.773,-533.5177"/>
</g>
<!-- DS&#45;1|xyz|8|18130|2 -->
<g id="DS&#45;1|xyz|8|18130|2" class="node">
<title>DS&#45;1|xyz|8|18130|2</title>
<ellipse fill="#ffffff" stroke="#0a879a" stroke-width="1.5" cx="202" cy="-705.1452" rx="48.1667" ry="21.4286"/>
<text text-anchor="start" x="193" y="-707.5452" font-family="Helvetica,sans-Serif" font-size="12.00" fill="#000000">DS</text>
<text text-anchor="start" x="176" y="-697.1452" font-family="Times,serif" font-size="10.00" fill="#000000">digest alg=2</text>
</g>
<!-- DNSKEY&#45;2|xyz|8|18130&#45;&gt;DS&#45;1|xyz|8|18130|2 -->
<g id="digest&#45;DNSKEY&#45;2|xyz|8|18130|DS&#45;1|xyz|8|18130|2|0a879a|solid" class="edge">
<title>DNSKEY&#45;2|xyz|8|18130&#45;&gt;DS&#45;1|xyz|8|18130|2</title>
<path fill="none" stroke="#0a879a" stroke-width="1.5" d="M172.26,-583.0605C179.93,-614.5465 190.5509,-658.146 196.806,-683.8235"/>
<polygon fill="#0a879a" stroke="#0a879a" stroke-width="1.5" points="175.6501,-582.1889 169.8826,-573.3014 168.849,-583.8457 175.6501,-582.1889"/>
</g>
<!-- DNSKEY&#45;99999|xyz|8|3599 -->
<g id="DNSKEY&#45;99999|xyz|8|3599" class="node">
<title>DNSKEY&#45;99999|xyz|8|3599</title>
<ellipse fill="#ffffff" stroke="#d0d0d0" stroke-width="1.5" stroke-dasharray="5,2" cx="316" cy="-545.0478" rx="56.6372" ry="21.4286"/>
<text text-anchor="start" x="290" y="-547.4478" font-family="Helvetica,sans-Serif" font-size="12.00" fill="#000000">DNSKEY</text>
<text text-anchor="start" x="284" y="-537.0478" font-family="Times,serif" font-size="10.00" fill="#000000">alg=8, id=3599</text>
</g>
<!-- DNSKEY&#45;99999|xyz|8|3599&#45;&gt;cluster_xyz_top -->
<!-- DS&#45;0|xyz|8|3599|2 -->
<g id="DS&#45;0|xyz|8|3599|2" class="node">
<title>DS&#45;0|xyz|8|3599|2</title>
<ellipse fill="#ffffff" stroke="#0a879a" stroke-width="1.5" cx="316" cy="-705.1452" rx="48.1667" ry="21.4286"/>
<text text-anchor="start" x="307" y="-707.5452" font-family="Helvetica,sans-Serif" font-size="12.00" fill="#000000">DS</text>
<text text-anchor="start" x="290" y="-697.1452" font-family="Times,serif" font-size="10.00" fill="#000000">digest alg=2</text>
</g>
<!-- DNSKEY&#45;99999|xyz|8|3599&#45;&gt;DS&#45;0|xyz|8|3599|2 -->
<g id="digest&#45;DNSKEY&#45;99999|xyz|8|3599|DS&#45;0|xyz|8|3599|2|d0d0d0|dashed" class="edge">
<title>DNSKEY&#45;99999|xyz|8|3599&#45;&gt;DS&#45;0|xyz|8|3599|2</title>
<path fill="none" stroke="#d0d0d0" stroke-width="1.5" stroke-dasharray="5,2" d="M316,-576.3752C316,-608.0805 316,-656.2428 316,-683.7976"/>
<polygon fill="#d0d0d0" stroke="#d0d0d0" stroke-width="1.5" points="319.5001,-576.3074 316,-566.3075 312.5001,-576.3075 319.5001,-576.3074"/>
</g>
<!-- DS&#45;2|dautor.xyz|13|40816|2 -->
<g id="DS&#45;2|dautor.xyz|13|40816|2" class="node">
<title>DS&#45;2|dautor.xyz|13|40816|2</title>
<ellipse fill="#ffffff" stroke="#0a879a" stroke-width="1.5" cx="172" cy="-394.9817" rx="48.1667" ry="21.4286"/>
<text text-anchor="start" x="163" y="-397.3817" font-family="Helvetica,sans-Serif" font-size="12.00" fill="#000000">DS</text>
<text text-anchor="start" x="146" y="-386.9817" font-family="Times,serif" font-size="10.00" fill="#000000">digest alg=2</text>
</g>
<!-- DS&#45;2|dautor.xyz|13|40816|2&#45;&gt;DNSKEY&#45;1|xyz|8|65206 -->
<g id="RRSIG&#45;DS&#45;2|dautor.xyz|13|40816|2|DNSKEY&#45;1|xyz|8|65206|0a879a|solid" class="edge">
<title>DS&#45;2|dautor.xyz|13|40816|2&#45;&gt;DNSKEY&#45;1|xyz|8|65206</title>
<path fill="none" stroke="#0a879a" stroke-width="1.5" d="M169.799,-426.4549C169.5266,-430.3504 169.2494,-434.3146 168.9805,-438.159"/>
<polygon fill="#0a879a" stroke="#0a879a" stroke-width="1.5" points="173.2936,-426.6532 170.4998,-416.4333 166.3106,-426.1648 173.2936,-426.6532"/>
</g>
<!-- cluster_dautor.xyz_top -->
<!-- cluster_dautor.xyz_top&#45;&gt;cluster_xyz_bottom -->
<g id="del&#45;dautor.xyz|xyz" class="edge">
<title>cluster_dautor.xyz_top&#45;&gt;cluster_xyz_bottom</title>
<path fill="none" stroke="#0a879a" stroke-width="5" d="M121.5946,-298.4348C119.3434,-304.6666 116.7228,-312.5538 115,-319.7685"/>
<polygon fill="#0a879a" stroke="#0a879a" stroke-width="5" points="122.4719,-307.6824 122.2909,-296.7685 114.3983,-304.3086 122.4719,-307.6824"/>
</g>
<!-- cluster_dautor.xyz_bottom -->
<!-- RRset&#45;10|dautor.xyz|AAAA -->
<g id="RRset&#45;10|dautor.xyz|AAAA" class="node">
<title>RRset&#45;10|dautor.xyz|AAAA</title>
<path fill="#ffffff" stroke="#0a879a" stroke-width="1.5" d="M110.5,-126.6C110.5,-126.6 27.5,-126.6 27.5,-126.6 21.5,-126.6 15.5,-120.6 15.5,-114.6 15.5,-114.6 15.5,-102.6 15.5,-102.6 15.5,-96.6 21.5,-90.6 27.5,-90.6 27.5,-90.6 110.5,-90.6 110.5,-90.6 116.5,-90.6 122.5,-96.6 122.5,-102.6 122.5,-102.6 122.5,-114.6 122.5,-114.6 122.5,-120.6 116.5,-126.6 110.5,-126.6"/>
<text text-anchor="start" x="23.5" y="-105.5" font-family="Helvetica,sans-Serif" font-size="12.00" fill="#000000">dautor.xyz/AAAA</text>
</g>
<!-- cluster_dautor.xyz_bottom&#45;&gt;RRset&#45;10|dautor.xyz|AAAA -->
<!-- RRset&#45;11|blog.dautor.xyz|CNAME -->
<g id="RRset&#45;11|blog.dautor.xyz|CNAME" class="node">
<title>RRset&#45;11|blog.dautor.xyz|CNAME</title>
<path fill="#ffffff" stroke="#0a879a" stroke-width="1.5" d="M202.5,-184.6C202.5,-184.6 81.5,-184.6 81.5,-184.6 75.5,-184.6 69.5,-178.6 69.5,-172.6 69.5,-172.6 69.5,-160.6 69.5,-160.6 69.5,-154.6 75.5,-148.6 81.5,-148.6 81.5,-148.6 202.5,-148.6 202.5,-148.6 208.5,-148.6 214.5,-154.6 214.5,-160.6 214.5,-160.6 214.5,-172.6 214.5,-172.6 214.5,-178.6 208.5,-184.6 202.5,-184.6"/>
<text text-anchor="start" x="77.5" y="-163.5" font-family="Helvetica,sans-Serif" font-size="12.00" fill="#000000">blog.dautor.xyz/CNAME</text>
</g>
<!-- cluster_dautor.xyz_bottom&#45;&gt;RRset&#45;11|blog.dautor.xyz|CNAME -->
<!-- RRset&#45;12|dautor.xyz|A -->
<g id="RRset&#45;12|dautor.xyz|A" class="node">
<title>RRset&#45;12|dautor.xyz|A</title>
<path fill="#ffffff" stroke="#0a879a" stroke-width="1.5" d="M232.5,-126.6C232.5,-126.6 173.5,-126.6 173.5,-126.6 167.5,-126.6 161.5,-120.6 161.5,-114.6 161.5,-114.6 161.5,-102.6 161.5,-102.6 161.5,-96.6 167.5,-90.6 173.5,-90.6 173.5,-90.6 232.5,-90.6 232.5,-90.6 238.5,-90.6 244.5,-96.6 244.5,-102.6 244.5,-102.6 244.5,-114.6 244.5,-114.6 244.5,-120.6 238.5,-126.6 232.5,-126.6"/>
<text text-anchor="start" x="169.5" y="-105.5" font-family="Helvetica,sans-Serif" font-size="12.00" fill="#000000">dautor.xyz/A</text>
</g>
<!-- cluster_dautor.xyz_bottom&#45;&gt;RRset&#45;12|dautor.xyz|A -->
<!-- DNSKEY&#45;0|dautor.xyz|13|40816 -->
<g id="DNSKEY&#45;0|dautor.xyz|13|40816" class="node">
<title>DNSKEY&#45;0|dautor.xyz|13|40816</title>
<ellipse fill="#d3d3d3" stroke="#0a879a" stroke-width="1.5" cx="142" cy="-234.8843" rx="64.1938" ry="28.0702"/>
<text text-anchor="start" x="116" y="-242.2843" font-family="Helvetica,sans-Serif" font-size="12.00" fill="#000000">DNSKEY</text>
<text text-anchor="start" x="104.5" y="-231.8843" font-family="Times,serif" font-size="10.00" fill="#000000">alg=13, id=40816</text>
<text text-anchor="start" x="125" y="-221.8843" font-family="Times,serif" font-size="10.00" fill="#000000">512 bits</text>
</g>
<!-- DNSKEY&#45;0|dautor.xyz|13|40816&#45;&gt;DS&#45;2|dautor.xyz|13|40816|2 -->
<g id="digest&#45;DNSKEY&#45;0|dautor.xyz|13|40816|DS&#45;2|dautor.xyz|13|40816|2|0a879a|solid" class="edge">
<title>DNSKEY&#45;0|dautor.xyz|13|40816&#45;&gt;DS&#45;2|dautor.xyz|13|40816|2</title>
<path fill="none" stroke="#0a879a" stroke-width="1.5" d="M149.1998,-273.3066C155.0938,-304.7602 163.2138,-348.0936 168.0046,-373.66"/>
<polygon fill="#0a879a" stroke="#0a879a" stroke-width="1.5" points="152.5763,-272.3222 147.2943,-263.138 145.6961,-273.6115 152.5763,-272.3222"/>
</g>
<!-- DNSKEY&#45;0|dautor.xyz|13|40816&#45;&gt;cluster_dautor.xyz_top -->
<!-- DNSKEY&#45;0|dautor.xyz|13|40816&#45;&gt;DNSKEY&#45;0|dautor.xyz|13|40816 -->
<g id="RRSIG&#45;DNSKEY&#45;0|dautor.xyz|13|40816|DNSKEY&#45;0|dautor.xyz|13|40816|0a879a|solid" class="edge">
<title>DNSKEY&#45;0|dautor.xyz|13|40816&#45;&gt;DNSKEY&#45;0|dautor.xyz|13|40816</title>
<path fill="none" stroke="#0a879a" stroke-width="1.5" d="M212.8281,-226.9263C219.8675,-228.5182 224.3467,-231.1709 224.3467,-234.8843 224.3467,-240.1655 215.2864,-243.3013 202.687,-244.2915"/>
<polygon fill="#0a879a" stroke="#0a879a" stroke-width="1.5" points="213.0816,-223.427 202.687,-225.477 212.0912,-230.3566 213.0816,-223.427"/>
</g>
<!-- RRset&#45;10|dautor.xyz|AAAA&#45;&gt;DNSKEY&#45;0|dautor.xyz|13|40816 -->
<g id="RRSIG&#45;RRset&#45;10|dautor.xyz|AAAA|DNSKEY&#45;0|dautor.xyz|13|40816|0a879a|solid" class="edge">
<title>RRset&#45;10|dautor.xyz|AAAA&#45;&gt;DNSKEY&#45;0|dautor.xyz|13|40816</title>
<path fill="none" stroke="#0a879a" stroke-width="1.5" d="M57.9809,-136.506C53.8466,-151.6117 51.8789,-170.0936 60,-184.6 67.505,-198.0059 80.2061,-208.2705 93.3993,-215.9203"/>
<polygon fill="#0a879a" stroke="#0a879a" stroke-width="1.5" points="61.4108,-137.268 61.092,-126.678 54.7372,-135.1555 61.4108,-137.268"/>
</g>
<!-- RRset&#45;10|dautor.xyz|AAAA&#45;&gt;RRset&#45;11|blog.dautor.xyz|CNAME -->
<g id="edge24" class="edge">
<title>RRset&#45;10|dautor.xyz|AAAA&#45;&gt;RRset&#45;11|blog.dautor.xyz|CNAME</title>
<path fill="none" stroke="#000000" stroke-width="1.5" d="M99.7121,-133.0014C106.1953,-138.1524 112.9284,-143.502 119.0651,-148.3778"/>
<polygon fill="#000000" stroke="#000000" stroke-width="1.5" points="101.7044,-130.1141 91.6975,-126.6336 97.3498,-135.5948 101.7044,-130.1141"/>
</g>
<!-- RRset&#45;11|blog.dautor.xyz|CNAME&#45;&gt;DNSKEY&#45;0|dautor.xyz|13|40816 -->
<g id="RRSIG&#45;RRset&#45;11|blog.dautor.xyz|CNAME|DNSKEY&#45;0|dautor.xyz|13|40816|0a879a|solid" class="edge">
<title>RRset&#45;11|blog.dautor.xyz|CNAME&#45;&gt;DNSKEY&#45;0|dautor.xyz|13|40816</title>
<path fill="none" stroke="#0a879a" stroke-width="1.5" d="M142,-195.1077C142,-198.8746 142,-202.7355 142,-206.5003"/>
<polygon fill="#0a879a" stroke="#0a879a" stroke-width="1.5" points="145.5001,-194.8989 142,-184.8989 138.5001,-194.899 145.5001,-194.8989"/>
</g>
<!-- RRset&#45;12|dautor.xyz|A&#45;&gt;DNSKEY&#45;0|dautor.xyz|13|40816 -->
<g id="RRSIG&#45;RRset&#45;12|dautor.xyz|A|DNSKEY&#45;0|dautor.xyz|13|40816|0a879a|solid" class="edge">
<title>RRset&#45;12|dautor.xyz|A&#45;&gt;DNSKEY&#45;0|dautor.xyz|13|40816</title>
<path fill="none" stroke="#0a879a" stroke-width="1.5" d="M220.1433,-135.5958C227.4141,-150.6956 232.4724,-169.4659 224,-184.6 216.495,-198.0059 203.7939,-208.2705 190.6007,-215.9203"/>
<polygon fill="#0a879a" stroke="#0a879a" stroke-width="1.5" points="223.2164,-133.9201 215.4315,-126.7336 217.0357,-137.2063 223.2164,-133.9201"/>
</g>
<!-- RRset&#45;12|dautor.xyz|A&#45;&gt;RRset&#45;11|blog.dautor.xyz|CNAME -->
<g id="edge27" class="edge">
<title>RRset&#45;12|dautor.xyz|A&#45;&gt;RRset&#45;11|blog.dautor.xyz|CNAME</title>
<path fill="none" stroke="#000000" stroke-width="1.5" d="M176.613,-133.6893C171.4199,-138.627 166.0648,-143.7187 161.1648,-148.3778"/>
<polygon fill="#000000" stroke="#000000" stroke-width="1.5" points="179.1983,-136.0607 184.0336,-126.6336 174.3748,-130.9878 179.1983,-136.0607"/>
</g>
<!-- cluster_._top -->
<!-- DNSKEY&#45;3|.|8|38696 -->
<g id="DNSKEY&#45;3|.|8|38696" class="node">
<title>DNSKEY&#45;3|.|8|38696</title>
<ellipse fill="#d3d3d3" stroke="#0a879a" stroke-width="1.5" cx="473" cy="-776.6427" rx="60.623" ry="28.0702"/>
<text text-anchor="start" x="447" y="-784.0427" font-family="Helvetica,sans-Serif" font-size="12.00" fill="#000000">DNSKEY</text>
<text text-anchor="start" x="438" y="-773.6427" font-family="Times,serif" font-size="10.00" fill="#000000">alg=8, id=38696</text>
<text text-anchor="start" x="453.5" y="-763.6427" font-family="Times,serif" font-size="10.00" fill="#000000">2048 bits</text>
</g>
<!-- DNSKEY&#45;5|.|8|20326 -->
<g id="DNSKEY&#45;5|.|8|20326" class="node">
<title>DNSKEY&#45;5|.|8|20326</title>
<ellipse fill="#d3d3d3" stroke="#0a879a" stroke-width="1.5" cx="333" cy="-859.2113" rx="60.6345" ry="28.0965"/>
<ellipse fill="none" stroke="#0a879a" stroke-width="1.5" cx="333" cy="-859.2113" rx="64.6229" ry="32.07"/>
<text text-anchor="start" x="307" y="-866.6113" font-family="Helvetica,sans-Serif" font-size="12.00" fill="#000000">DNSKEY</text>
<text text-anchor="start" x="298" y="-856.2113" font-family="Times,serif" font-size="10.00" fill="#000000">alg=8, id=20326</text>
<text text-anchor="start" x="313.5" y="-846.2113" font-family="Times,serif" font-size="10.00" fill="#000000">2048 bits</text>
</g>
<!-- DNSKEY&#45;3|.|8|38696&#45;&gt;DNSKEY&#45;5|.|8|20326 -->
<g id="RRSIG&#45;DNSKEY&#45;3|.|8|38696|DNSKEY&#45;5|.|8|20326|0a879a|solid" class="edge">
<title>DNSKEY&#45;3|.|8|38696&#45;&gt;DNSKEY&#45;5|.|8|20326</title>
<path fill="none" stroke="#0a879a" stroke-width="1.5" d="M426.1273,-804.2871C409.5402,-814.0697 391.0012,-825.0036 374.8579,-834.5245"/>
<polygon fill="#0a879a" stroke="#0a879a" stroke-width="1.5" points="428.2785,-807.0818 435.114,-798.9869 424.7224,-801.0523 428.2785,-807.0818"/>
</g>
<!-- DNSKEY&#45;4|.|8|61809 -->
<g id="DNSKEY&#45;4|.|8|61809" class="node">
<title>DNSKEY&#45;4|.|8|61809</title>
<ellipse fill="#ffffff" stroke="#0a879a" stroke-width="1.5" cx="193" cy="-776.6427" rx="60.623" ry="28.0702"/>
<text text-anchor="start" x="167" y="-784.0427" font-family="Helvetica,sans-Serif" font-size="12.00" fill="#000000">DNSKEY</text>
<text text-anchor="start" x="158" y="-773.6427" font-family="Times,serif" font-size="10.00" fill="#000000">alg=8, id=61809</text>
<text text-anchor="start" x="173.5" y="-763.6427" font-family="Times,serif" font-size="10.00" fill="#000000">2048 bits</text>
</g>
<!-- DNSKEY&#45;4|.|8|61809&#45;&gt;DNSKEY&#45;5|.|8|20326 -->
<g id="RRSIG&#45;DNSKEY&#45;4|.|8|61809|DNSKEY&#45;5|.|8|20326|0a879a|solid" class="edge">
<title>DNSKEY&#45;4|.|8|61809&#45;&gt;DNSKEY&#45;5|.|8|20326</title>
<path fill="none" stroke="#0a879a" stroke-width="1.5" d="M239.8727,-804.2871C256.4598,-814.0697 274.9988,-825.0036 291.1421,-834.5245"/>
<polygon fill="#0a879a" stroke="#0a879a" stroke-width="1.5" points="241.2776,-801.0523 230.886,-798.9869 237.7215,-807.0818 241.2776,-801.0523"/>
</g>
<!-- DNSKEY&#45;5|.|8|20326&#45;&gt;cluster_._top -->
<!-- DNSKEY&#45;5|.|8|20326&#45;&gt;DNSKEY&#45;5|.|8|20326 -->
<g id="RRSIG&#45;DNSKEY&#45;5|.|8|20326|DNSKEY&#45;5|.|8|20326|0a879a|solid" class="edge">
<title>DNSKEY&#45;5|.|8|20326&#45;&gt;DNSKEY&#45;5|.|8|20326</title>
<path fill="none" stroke="#0a879a" stroke-width="1.5" d="M404.6332,-850.7413C411.4782,-852.4658 415.8112,-855.2891 415.8112,-859.2113 415.8112,-864.7894 407.0469,-868.145 394.7563,-869.278"/>
<polygon fill="#0a879a" stroke="#0a879a" stroke-width="1.5" points="405.1867,-847.2854 394.7563,-849.1445 404.0695,-854.1957 405.1867,-847.2854"/>
</g>
<!-- DNSKEY&#45;6|.|8|21831 -->
<g id="DNSKEY&#45;6|.|8|21831" class="node">
<title>DNSKEY&#45;6|.|8|21831</title>
<ellipse fill="#ffffff" stroke="#0a879a" stroke-width="1.5" cx="333" cy="-776.6427" rx="60.623" ry="28.0702"/>
<text text-anchor="start" x="307" y="-784.0427" font-family="Helvetica,sans-Serif" font-size="12.00" fill="#000000">DNSKEY</text>
<text text-anchor="start" x="298" y="-773.6427" font-family="Times,serif" font-size="10.00" fill="#000000">alg=8, id=21831</text>
<text text-anchor="start" x="313.5" y="-763.6427" font-family="Times,serif" font-size="10.00" fill="#000000">2048 bits</text>
</g>
<!-- DNSKEY&#45;6|.|8|21831&#45;&gt;DNSKEY&#45;5|.|8|20326 -->
<g id="RRSIG&#45;DNSKEY&#45;6|.|8|21831|DNSKEY&#45;5|.|8|20326|0a879a|solid" class="edge">
<title>DNSKEY&#45;6|.|8|21831&#45;&gt;DNSKEY&#45;5|.|8|20326</title>
<path fill="none" stroke="#0a879a" stroke-width="1.5" d="M333,-815.1644C333,-819.0471 333,-822.9625 333,-826.7724"/>
<polygon fill="#0a879a" stroke="#0a879a" stroke-width="1.5" points="336.5001,-815.0581 333,-805.0581 329.5001,-815.0582 336.5001,-815.0581"/>
</g>
<!-- DS&#45;0|xyz|8|3599|2&#45;&gt;DNSKEY&#45;4|.|8|61809 -->
<g id="RRSIG&#45;DS&#45;0|xyz|8|3599|2|DNSKEY&#45;4|.|8|61809|0a879a|solid" class="edge">
<title>DS&#45;0|xyz|8|3599|2&#45;&gt;DNSKEY&#45;4|.|8|61809</title>
<path fill="none" stroke="#0a879a" stroke-width="1.5" d="M277.9266,-727.2765C263.0889,-735.9014 246.1122,-745.7697 231.2569,-754.4047"/>
<polygon fill="#0a879a" stroke="#0a879a" stroke-width="1.5" points="279.9641,-730.1406 286.8507,-722.0891 276.4463,-724.0887 279.9641,-730.1406"/>
</g>
<!-- DS&#45;1|xyz|8|18130|2&#45;&gt;DNSKEY&#45;4|.|8|61809 -->
<g id="RRSIG&#45;DS&#45;1|xyz|8|18130|2|DNSKEY&#45;4|.|8|61809|0a879a|solid" class="edge">
<title>DS&#45;1|xyz|8|18130|2&#45;&gt;DNSKEY&#45;4|.|8|61809</title>
<path fill="none" stroke="#0a879a" stroke-width="1.5" d="M198.0382,-736.6184C197.5478,-740.5139 197.0488,-744.4781 196.5649,-748.3224"/>
<polygon fill="#0a879a" stroke="#0a879a" stroke-width="1.5" points="201.5233,-736.9557 199.2997,-726.5968 194.5781,-736.0814 201.5233,-736.9557"/>
</g>
</g>
</svg>
